# xmcd
#
# Track frame offsets:
#   150
#   16730
#   32601
#   48094
#   64221
#   79752
#   97219
#   112194
#   131498
#   146777
#   165939
#   185182
#   201568
#   215847
#   233430
#   251868
#   268278
#   287140
#   302956
#   319354
#
# Disc length: 4490 seconds
#
# Revision: 0
# Processed by: cddbd v1.5.2PL0 Copyright (c) Steve Scherf et al.
# Submitted via: uFREEDB ActiveX Control 1.5
#
DISCID=3b118814
DTITLE=dfhgfddf - fgdhg
DYEAR=1900
DGENRE=gfdh
TTITLE0=hfghf
TTITLE1=fhgh
TTITLE2=gfhdghf
TTITLE3=gfhgf
TTITLE4=gfdhgfh
TTITLE5=gfh
TTITLE6=hfhhgg
TTITLE7=gfhd
TTITLE8=gfhh
TTITLE9=fdhgfhfdh
TTITLE10=fghdhf
TTITLE11=fghdhf
TTITLE12=fghdghf
TTITLE13=hfghfd
TTITLE14=fghfhfd
TTITLE15=fhdgfdh
TTITLE16=gfhdghdfh
TTITLE17=fdhgfdhf
TTITLE18=dfhgfhfd
TTITLE19=gfdhgfdhfd
EXTD=
EXTT0=
EXTT1=
EXTT2=
EXTT3=
EXTT4=
EXTT5=
EXTT6=
EXTT7=
EXTT8=
EXTT9=
EXTT10=
EXTT11=
EXTT12=
EXTT13=
EXTT14=
EXTT15=
EXTT16=
EXTT17=
EXTT18=
EXTT19=
PLAYORDER=
